<?xml version="1.0" encoding="UTF-8"?><svg id="Calque_1" xmlns="http://www.w3.org/2000/svg" viewBox="0 0 34.19 14.12"><defs><style>.cls-1{fill:#fff;}</style></defs><path class="cls-1" d="M5.7,7.56v1.89H0V0h1.9v7.56h3.8Z"/><path class="cls-1" d="M7.96,0h3.32c1.83,0,3.32,1.44,3.32,3.19s-1.49,3.18-3.32,3.18h-1.42v3.07h-1.9V0ZM12.7,3.18c0-.71-.64-1.29-1.42-1.29h-1.42v2.61h1.42c.79.01,1.42-.59,1.42-1.32Z"/><path class="cls-1" d="M23.14,12.04v1.89h-5.7V4.48h1.9v7.56h3.8Z"/><path class="cls-1" d="M34.19,9.42c0,2.96-2.04,4.69-4.51,4.69-2.78,0-4.97-2.2-4.97-4.9s2.2-4.93,4.9-4.93c1.22.01,2.53.57,3.46,1.48l-1.05,1.58c-.74-.72-1.58-1.13-2.43-1.13-1.46,0-2.95,1.24-2.95,3.01,0,1.64,1.28,2.99,3.12,2.99,1.35,0,2.31-.69,2.38-1.83h-2.44v-1.75h4.44c.03.28.05.54.05.8Z"/><rect class="cls-1" x="17.5" y="0" width="16.68" height="2"/><rect class="cls-1" x=".03" y="12.05" width="14.57" height="2"/></svg>