<svg xmlns="http://www.w3.org/2000/svg" viewBox="50.9 34.8 410.0 186.2"><path d="M153.67 46.75L160.33 46.75L160.5 46.92L174.17 46.92L174.33 47.08L183 47.08L183.17 47.25L188.83 47.25L189 47.42L190.5 47.42L190.67 47.58L192.83 47.58L193 47.75L194.67 47.75L194.83 47.92L197 47.92L197.17 48.08L198.17 48.08L198.33 48.25L198.83 48.25L199 48.42L199.17 48.42L199.33 48.58L199.67 48.58L199.83 48.75L200.17 48.75L200.33 48.92L201 48.92L201.17 49.08L201.67 49.08L201.83 49.25L202 49.25L202.17 49.42L202.33 49.42L202.67 49.75L203 49.75L203.17 49.92L203.5 49.92L203.67 50.08L204 50.08L204.17 50.25L204.33 50.25L204.5 50.42L204.67 50.42L205 50.75L205.17 50.75L205.33 50.92L205.83 50.92L206 51.08L206.33 51.08L207 51.75L207.17 51.75L207.33 51.92L207.67 51.92L207.83 52.08L208 52.08L208.17 52.25L208.33 52.25L208.83 52.75L209 52.75L209.17 52.92L209.33 52.92L209.5 53.08L209.67 53.08L210.17 53.58L210.33 53.58L210.67 53.92L210.83 53.92L211 54.08L211.17 54.08L211.83 54.75L212 54.75L212.33 55.08L212.5 55.08L213.33 55.92L213.5 55.92L214.33 56.75L214.5 56.75L214.83 57.08L215 57.08L217 59.08L217.17 59.08L217.75 59.67L217.75 59.83L218.17 60.25L218.33 60.25L218.42 60.33L218.42 60.5L219.75 61.83L219.75 62L220.25 62.5L220.25 62.67L220.33 62.75L220.5 62.75L220.75 63L220.75 63.17L221.08 63.5L221.08 63.67L221.33 63.92L221.5 63.92L221.58 64L221.58 64.17L221.92 64.5L221.92 64.67L222.25 65L222.25 65.17L222.33 65.25L222.5 65.25L222.58 65.33L222.58 65.5L222.75 65.67L222.75 65.83L222.92 66L222.92 66.17L223.08 66.33L223.08 66.5L223.75 67.17L223.75 67.33L223.92 67.5L223.92 67.83L224.08 68L224.08 68.17L224.58 68.67L224.58 68.83L224.75 69L224.75 69.33L224.92 69.5L224.92 70L225.08 70.17L225.08 70.5L225.25 70.67L225.25 70.83L225.42 71L225.42 71.17L225.58 71.33L225.58 71.67L225.75 71.83L225.75 72.5L225.92 72.67L225.92 73.83L226.08 74L226.08 74.67L226.25 74.83L226.25 75.5L226.42 75.67L226.42 76.17L226.58 76.33L226.58 77L226.75 77.17L226.75 79L226.92 79.17L226.92 83.33L227.08 83.5L227.08 88.5L226.92 88.67L226.92 91.17L226.75 91.33L226.75 92.17L226.58 92.33L226.58 92.67L226.42 92.83L226.42 93L226.25 93.17L226.25 93.33L226.08 93.5L226.08 93.83L225.92 94L225.92 94.5L225.75 94.67L225.75 95L225.58 95.17L225.58 95.33L225.25 95.67L225.25 95.83L225.08 96L225.08 96.17L224.92 96.33L224.92 96.83L224.75 97L224.75 97.33L224.58 97.5L224.58 97.67L224.08 98.17L224.08 98.33L223.92 98.5L223.92 98.83L223.75 99L223.75 99.17L223.58 99.33L223.58 99.5L223.08 100L223.08 100.17L222.92 100.33L222.92 100.5L222.75 100.67L222.75 100.83L222.58 101L222.58 101.17L222.08 101.67L222.08 101.83L221.92 102L221.92 102.17L221.75 102.33L221.75 102.5L220.92 103.33L220.92 103.5L220.58 103.83L220.58 104L220.5 104.08L220.33 104.08L220.25 104.17L220.25 104.33L219.92 104.67L219.92 104.83L218.92 105.83L218.92 106L217.75 107.17L217.75 107.33L217.33 107.75L217.17 107.75L216.75 108.17L216.75 108.33L216.5 108.58L216.33 108.58L215.17 109.75L215 109.75L214.5 110.25L214.33 110.25L213.67 110.92L213.5 110.92L212.67 111.75L212.5 111.75L212.33 111.92L212.17 111.92L211.5 112.58L211.33 112.58L211.17 112.75L211 112.75L210.83 112.92L210.67 112.92L210.17 113.42L210 113.42L209.67 113.75L209.5 113.75L209.33 113.92L209.17 113.92L209 114.08L208.83 114.08L208.5 114.42L208.33 114.42L208 114.75L207.83 114.75L207.67 114.92L207.33 114.92L207.17 115.08L207 115.08L206.83 115.25L206.67 115.25L206.33 115.58L206.17 115.58L206 115.75L205.67 115.75L205.5 115.92L205.17 115.92L205 116.08L204.67 116.08L204.33 116.42L204.17 116.42L204 116.58L203.83 116.58L203.67 116.75L203.33 116.75L203.17 116.92L202.33 116.92L202.17 117.08L201.67 117.08L201.5 117.25L201.17 117.25L201 117.42L200.83 117.42L200.67 117.58L200 117.58L199.83 117.75L198.5 117.75L198.33 117.92L196.33 117.92L196.17 118.08L194.5 118.08L194.33 118.25L192.67 118.25L192.5 118.42L191.17 118.42L191 118.58L189.17 118.58L189 118.75L185 118.75L184.83 118.92L179.17 118.92L179 119.08L176.33 119.08L176.17 119.25L176 119.25L175.83 119.42L175.67 119.42L175.42 119.67L175.42 119.83L175.25 120L175.25 120.33L175.08 120.5L175.08 124.67L174.92 124.83L174.92 133.33L174.75 133.5L174.75 139.5L174.58 139.67L174.58 143.33L174.42 143.5L174.42 146.33L174.25 146.5L174.25 149.67L174.08 149.83L174.08 152.67L173.92 152.83L173.92 153.17L173.5 153.58L173.33 153.58L173.17 153.75L166.33 153.75L166.17 153.92L157.5 153.92L157.33 154.08L153.67 154.08L153.5 153.92L153.33 153.92L153.25 153.83L153.25 153.67L153.08 153.5L153.08 47.33L153.25 47.17L153.25 47L153.33 46.92L153.5 46.92ZM63.33 46.92L71.5 46.92L71.67 47.08L78 47.08L78.17 47.25L82 47.25L82.17 47.42L83.33 47.42L83.75 47.83L83.75 48.17L83.92 48.33L83.92 83L84.08 83.17L84.08 106.5L84.25 106.67L84.25 122.83L84.42 123L84.42 131.5L84.58 131.67L84.58 132L85.17 132.58L85.33 132.58L85.5 132.75L126.17 132.75L126.33 132.92L126.5 132.92L126.58 133L126.58 133.17L126.75 133.33L126.75 153.5L126.33 153.92L125.67 153.92L125.5 154.08L63.5 154.08L62.92 153.5L62.92 47.33ZM387.83 46.92L448.5 46.92L448.92 47.33L448.92 69L448.75 69.17L448.75 69.33L448.5 69.58L448.17 69.58L448 69.75L447.83 69.58L261.17 69.58L260.75 69.17L260.75 69L260.58 68.83L260.58 66.33L260.75 66.17L260.75 60.67L260.92 60.5L260.92 51L261.08 50.83L261.08 48L261.67 47.42L280.67 47.42L280.83 47.25L322.83 47.25L323 47.08L387.67 47.08ZM175.5 68.08L176.5 68.08L176.67 68.25L179.17 68.25L179.33 68.42L182.5 68.42L182.67 68.58L185.83 68.58L186 68.75L190.67 68.75L190.83 68.92L194.5 68.92L194.67 69.08L195.5 69.08L195.67 69.25L196 69.25L196.17 69.42L196.33 69.42L196.5 69.58L196.83 69.58L197 69.75L197.5 69.75L197.67 69.92L198 69.92L198.17 70.08L198.33 70.08L199 70.75L199.17 70.75L199.33 70.92L199.5 70.92L200.5 71.92L200.67 71.92L200.92 72.17L200.92 72.33L201.5 72.92L201.67 72.92L201.92 73.17L201.92 73.33L202.92 74.33L202.92 74.5L203.75 75.33L203.75 75.5L203.92 75.67L203.92 75.83L204.08 76L204.08 76.17L204.25 76.33L204.25 76.5L204.75 77L204.75 77.17L204.92 77.33L204.92 77.67L205.08 77.83L205.08 78L205.25 78.17L205.25 78.33L205.42 78.5L205.42 78.67L205.58 78.83L205.58 79L205.75 79.17L205.75 79.5L205.92 79.67L205.92 80.5L206.08 80.67L206.08 81.83L206.25 82L206.25 84.17L206.08 84.33L206.08 85.5L205.92 85.67L205.92 86.5L205.75 86.67L205.75 87L205.58 87.17L205.58 87.33L205.25 87.67L205.25 87.83L205.08 88L205.08 88.33L204.92 88.5L204.92 88.83L204.75 89L204.75 89.17L204.58 89.33L204.58 89.5L204.08 90L204.08 90.17L203.92 90.33L203.92 90.5L203.75 90.67L203.75 90.83L203.08 91.5L203.08 91.67L202.75 92L202.75 92.17L201.92 93L201.92 93.17L200.17 94.92L200 94.92L199.5 95.42L199.33 95.42L199 95.75L198.83 95.75L198.67 95.92L198.5 95.92L198.33 96.08L198.17 96.08L198 96.25L197.83 96.25L197.5 96.58L197.33 96.58L197.17 96.75L196.83 96.75L196.67 96.92L196 96.92L195.83 97.08L195 97.08L194.83 97.25L194.5 97.25L194.33 97.42L193.67 97.42L193.5 97.58L192.83 97.58L192.67 97.75L191.67 97.75L191.5 97.92L187 97.92L186.83 98.08L181.83 98.08L181.67 98.25L178.33 98.25L178.17 98.42L176 98.42L175.83 98.58L175.67 98.42L175.33 98.42L174.92 98L174.92 97.83L174.75 97.67L174.75 69.17L174.92 69L174.92 68.67L175.08 68.5L175.08 68.33L175.17 68.25L175.33 68.25ZM395.33 98.42L399.67 98.42L399.83 98.58L402.17 98.58L402.33 98.75L404.17 98.75L404.33 98.92L406.33 98.92L406.5 99.08L407.67 99.08L407.83 99.25L408.17 99.25L408.33 99.42L408.67 99.42L408.83 99.58L409.17 99.58L409.33 99.75L410 99.75L410.17 99.92L411 99.92L411.17 100.08L411.67 100.08L411.83 100.25L412.17 100.25L412.5 100.58L412.67 100.58L412.83 100.75L413.33 100.75L413.5 100.92L414 100.92L414.17 101.08L414.67 101.08L414.83 101.25L415 101.25L415.33 101.58L415.5 101.58L415.67 101.75L415.83 101.75L416 101.92L416.5 101.92L416.67 102.08L417 102.08L417.17 102.25L417.33 102.25L417.5 102.42L417.67 102.42L418 102.75L418.33 102.75L418.5 102.92L418.83 102.92L419 103.08L419.33 103.08L419.5 103.25L419.67 103.25L420 103.58L420.17 103.58L420.33 103.75L420.5 103.75L420.67 103.92L421 103.92L421.17 104.08L421.5 104.08L421.67 104.25L421.83 104.25L422.33 104.75L422.5 104.75L422.67 104.92L423 104.92L423.17 105.08L423.33 105.08L423.5 105.25L423.67 105.25L424.17 105.75L424.33 105.75L424.5 105.92L424.83 105.92L425 106.08L425.17 106.08L425.33 106.25L425.5 106.25L426 106.75L426.17 106.75L426.33 106.92L426.5 106.92L426.67 107.08L427 107.08L427.5 107.58L427.67 107.58L428 107.92L428.33 107.92L428.5 108.08L428.67 108.08L429.33 108.75L429.5 108.75L429.67 108.92L429.83 108.92L430.17 109.25L430.33 109.25L431 109.92L431.17 109.92L431.33 110.08L431.5 110.08L432.33 110.92L432.5 110.92L433.08 111.5L433.08 111.67L433.17 111.75L433.33 111.75L434.92 113.33L434.92 113.5L435.33 113.92L435.5 113.92L435.75 114.17L435.75 114.33L435.92 114.5L435.92 115.67L435.75 115.83L435.75 116L435.08 116.67L435.08 116.83L434.92 117L434.92 117.17L434.75 117.33L434.75 117.5L434.58 117.67L434.58 117.83L434.5 117.92L434.33 117.92L434.25 118L434.25 118.17L433.92 118.5L433.92 118.67L433.75 118.83L433.75 119L433.58 119.17L433.58 119.33L433.08 119.83L433.08 120L432.92 120.17L432.92 120.33L432.75 120.5L432.75 120.67L432.08 121.33L432.08 121.5L431.92 121.67L431.92 121.83L431.75 122L431.75 122.17L431.58 122.33L431.58 122.5L430.92 123.17L430.92 123.5L430.58 123.83L430.58 124L429.92 124.67L429.92 125L429.75 125.17L429.75 125.33L428.92 126.17L428.92 126.33L428.75 126.5L428.75 126.67L428.08 127.33L428.08 127.5L427.92 127.67L427.92 127.83L427.58 128.17L427.58 128.33L426.92 129L426.92 129.17L426.58 129.5L426.58 129.67L426.5 129.75L426.33 129.75L425.92 130.17L425.92 130.33L425.33 130.92L424 130.92L423.83 130.75L423.5 130.75L422.83 130.08L422.67 130.08L422.5 129.92L422.33 129.92L422 129.58L421.83 129.58L421.75 129.5L421.75 129.33L421.67 129.25L421.5 129.25L421.17 128.92L421 128.92L420.83 128.75L420.67 128.75L420 128.08L419.83 128.08L419.5 127.75L419.33 127.75L418.67 127.08L418.5 127.08L418.33 126.92L418.17 126.92L417.83 126.58L417.67 126.58L417 125.92L416.83 125.92L416.67 125.75L416.5 125.75L416 125.25L415.83 125.25L415.5 124.92L415.17 124.92L415 124.75L414.83 124.75L414.33 124.25L414.17 124.25L414 124.08L413.83 124.08L413.67 123.92L413.5 123.92L413.33 123.75L413 123.75L412.67 123.42L412.5 123.42L412.17 123.08L411.83 123.08L411.67 122.92L411.33 122.92L411.17 122.75L410.83 122.75L410.67 122.58L410.5 122.58L410.17 122.25L410 122.25L409.83 122.08L409.67 122.08L409.5 121.92L408.83 121.92L408.67 121.75L408.17 121.75L408 121.58L407.83 121.58L407.67 121.42L407.5 121.42L407.33 121.25L407 121.25L406.83 121.08L406.5 121.08L406.33 120.92L405.33 120.92L405.17 120.75L404.33 120.75L404.17 120.58L403.5 120.58L403.33 120.42L403 120.42L402.83 120.25L402.33 120.25L402.17 120.08L401 120.08L400.83 119.92L394.5 119.92L394.33 120.08L393.17 120.08L393 120.25L392.5 120.25L392.33 120.42L392 120.42L391.83 120.58L391.33 120.58L391.17 120.75L390.17 120.75L390 120.92L389.33 120.92L389.17 121.08L388.67 121.08L388.5 121.25L388.33 121.25L388.17 121.42L388 121.42L387.83 121.58L387.5 121.58L387.33 121.75L386.83 121.75L386.67 121.92L386 121.92L385.83 122.08L385.67 122.08L385.33 122.42L385.17 122.42L385 122.58L384.83 122.58L384.67 122.75L384.33 122.75L384.17 122.92L383.67 122.92L383.5 123.08L383.33 123.08L382.83 123.58L382.67 123.58L382.5 123.75L382.33 123.75L382.17 123.92L381.83 123.92L381.5 124.25L381.33 124.25L380.83 124.75L380.5 124.75L380.33 124.92L380.17 124.92L380 125.08L379.83 125.08L379.33 125.58L379.17 125.58L378.83 125.92L378.67 125.92L378.5 126.08L378.33 126.08L377.5 126.92L377.33 126.92L376.5 127.75L376.33 127.75L375.17 128.92L375 128.92L374.75 129.17L374.75 129.33L374.33 129.75L374.17 129.75L373.75 130.17L373.75 130.33L373.33 130.75L373.17 130.75L373.08 130.83L373.08 131L372.75 131.33L372.75 131.5L372.5 131.75L372.33 131.75L371.92 132.17L371.92 132.33L371.75 132.5L371.75 132.67L371.5 132.92L371.33 132.92L371.08 133.17L371.08 133.33L370.92 133.5L370.92 133.67L370.58 134L370.58 134.17L370.08 134.67L370.08 134.83L369.92 135L369.92 135.17L369.75 135.33L369.75 135.5L368.92 136.33L368.92 136.67L368.75 136.83L368.75 137L368.58 137.17L368.58 137.33L368.08 137.83L368.08 138L367.92 138.17L367.92 138.5L367.75 138.67L367.75 139L367.42 139.33L367.42 139.5L367.08 139.83L367.08 140L366.92 140.17L366.92 140.5L366.75 140.67L366.75 141L366.58 141.17L366.58 141.33L366.42 141.5L366.42 141.67L366.08 142L366.08 142.33L365.92 142.5L365.92 143L365.75 143.17L365.75 143.5L365.58 143.67L365.58 143.83L365.42 144L365.42 144.17L365.25 144.33L365.25 144.5L365.08 144.67L365.08 145.17L364.92 145.33L364.92 146.5L364.75 146.67L364.75 148.67L364.58 148.83L364.58 153.33L364.75 153.5L364.75 156.83L364.92 157L364.92 159.33L365.08 159.5L365.08 160.5L365.25 160.67L365.25 161.17L365.42 161.33L365.42 161.67L365.58 161.83L365.58 162.33L365.75 162.5L365.75 163.17L365.92 163.33L365.92 164.33L366.08 164.5L366.08 164.83L366.25 165L366.25 165.17L366.42 165.33L366.42 165.5L366.58 165.67L366.58 165.83L366.75 166L366.75 166.5L366.92 166.67L366.92 167.17L367.08 167.33L367.08 167.5L367.25 167.67L367.25 167.83L367.58 168.17L367.58 168.33L367.75 168.5L367.75 168.83L367.92 169L367.92 169.33L368.08 169.5L368.08 169.67L368.58 170.17L368.58 170.33L368.75 170.5L368.75 170.67L368.92 170.83L368.92 171L369.08 171.17L369.08 171.33L369.58 171.83L369.58 172L369.92 172.33L369.92 172.5L370.08 172.67L370.08 172.83L370.92 173.67L370.92 173.83L371.58 174.5L371.58 174.67L372.92 176L372.92 176.17L373.67 176.92L373.83 176.92L375 178.08L375.17 178.08L376.17 179.08L376.33 179.08L377.17 179.92L377.33 179.92L377.5 180.08L377.67 180.08L378.33 180.75L378.5 180.75L378.67 180.92L378.83 180.92L379.17 181.25L379.33 181.25L379.83 181.75L380 181.75L380.17 181.92L380.33 181.92L380.5 182.08L380.67 182.08L380.83 182.25L381 182.25L381.5 182.75L381.67 182.75L381.83 182.92L382.17 182.92L382.33 183.08L382.67 183.08L382.83 183.25L383 183.25L383.5 183.75L383.67 183.75L383.83 183.92L384.33 183.92L384.5 184.08L384.83 184.08L385 184.25L385.17 184.25L385.33 184.42L385.5 184.42L385.83 184.75L386.17 184.75L386.33 184.92L386.83 184.92L387 185.08L387.5 185.08L387.67 185.25L387.83 185.25L388 185.42L388.17 185.42L388.33 185.58L388.5 185.58L388.67 185.75L389.17 185.75L389.33 185.92L390.33 185.92L390.5 186.08L391.17 186.08L391.33 186.25L391.67 186.25L391.83 186.42L392.17 186.42L392.33 186.58L392.67 186.58L392.83 186.75L393.83 186.75L394 186.92L395.83 186.92L396 187.08L403.67 187.08L403.83 186.92L405.83 186.92L406 186.75L406.67 186.75L406.83 186.58L407.33 186.58L407.5 186.42L407.83 186.42L408 186.25L408.5 186.25L408.67 186.08L409.17 186.08L409.33 185.92L410.17 185.92L410.33 185.75L410.67 185.75L410.83 185.58L411 185.58L411.17 185.42L411.33 185.42L411.5 185.25L411.67 185.25L411.83 185.08L412.33 185.08L412.5 184.92L413 184.92L413.17 184.75L413.33 184.75L413.67 184.42L413.83 184.42L414.17 184.08L414.67 184.08L414.83 183.92L415.17 183.92L415.33 183.75L415.5 183.75L416.17 183.08L416.33 183.08L416.5 182.92L416.83 182.92L417.17 182.58L417.33 182.58L417.83 182.08L418 182.08L418.17 181.92L418.33 181.92L418.5 181.75L418.67 181.75L418.92 181.5L418.92 181.33L419.17 181.08L419.33 181.08L420.33 180.08L420.5 180.08L421.08 179.5L421.08 179.33L421.33 179.08L421.5 179.08L421.92 178.67L421.92 178.5L422.75 177.67L422.75 177.5L422.92 177.33L422.92 177.17L423.25 176.83L423.25 176.67L423.75 176.17L423.75 176L423.92 175.83L423.92 175.5L424.08 175.33L424.08 175.17L424.25 175L424.25 174.83L424.75 174.33L424.75 174L424.92 173.83L424.92 173.33L425.08 173.17L425.08 172.83L425.25 172.67L425.25 172.33L425.42 172.17L425.42 172L425.58 171.83L425.58 171.5L425.75 171.33L425.75 170.83L425.92 170.67L425.92 169.67L426.08 169.5L426.08 168.5L426.25 168.33L426.25 168L426.42 167.83L426.42 167.33L426 166.92L425.67 166.92L425.5 166.75L399.33 166.75L398.92 166.33L398.92 158.5L399.08 158.33L399.08 153.5L399.25 153.33L399.25 151.33L399.42 151.17L399.42 150.5L399.58 150.33L399.58 149.67L399.75 149.5L399.75 148.67L399.92 148.5L399.92 148L400.08 147.83L400.08 147.5L400.5 147.08L401 147.08L401.17 146.92L408.83 146.92L409 147.08L426.17 147.08L426.33 147.25L441.83 147.25L442 147.42L448.5 147.42L448.75 147.67L448.75 148L448.92 148.17L448.92 161.33L448.75 161.5L448.75 163.83L448.58 164L448.58 165L448.42 165.17L448.42 165.67L448.25 165.83L448.25 166.33L448.08 166.5L448.08 167.5L447.92 167.67L447.92 169L447.75 169.17L447.75 170L447.58 170.17L447.58 170.67L447.42 170.83L447.42 171L447.25 171.17L447.25 171.5L447.08 171.67L447.08 172.17L446.92 172.33L446.92 173.17L446.75 173.33L446.75 174L446.58 174.17L446.58 174.33L446.42 174.5L446.42 174.67L446.25 174.83L446.25 175L446.08 175.17L446.08 175.67L445.92 175.83L445.92 176.33L445.75 176.5L445.75 177L445.58 177.17L445.58 177.33L445.42 177.5L445.42 177.67L445.25 177.83L445.25 178L445.08 178.17L445.08 178.33L444.92 178.5L444.92 179L444.75 179.17L444.75 179.5L444.58 179.67L444.58 179.83L444.42 180L444.42 180.17L444.08 180.5L444.08 180.67L443.92 180.83L443.92 181.33L443.75 181.5L443.75 181.83L443.42 182.17L443.42 182.33L443.08 182.67L443.08 182.83L442.92 183L442.92 183.33L442.75 183.5L442.75 183.83L442.25 184.33L442.25 184.5L441.92 184.83L441.92 185.17L441.75 185.33L441.75 185.5L441.25 186L441.25 186.17L440.92 186.5L440.92 186.83L440.75 187L440.75 187.17L440.08 187.83L440.08 188L439.92 188.17L439.92 188.33L439.75 188.5L439.75 188.67L438.92 189.5L438.92 189.67L438.75 189.83L438.75 190L437.92 190.83L437.92 191L437.58 191.33L437.58 191.5L437.33 191.75L437.17 191.75L437.08 191.83L437.08 192L436.75 192.33L436.75 192.5L436.5 192.75L436.33 192.75L435.92 193.17L435.92 193.33L433.33 195.92L433.17 195.92L432.92 196.17L432.92 196.33L432.5 196.75L432.33 196.75L431.33 197.75L431.17 197.75L431 197.92L430.83 197.92L430 198.75L429.83 198.75L429.67 198.92L429.5 198.92L428.67 199.75L428.5 199.75L428.33 199.92L428.17 199.92L428 200.08L427.83 200.08L427.17 200.75L427 200.75L426.83 200.92L426.67 200.92L426.5 201.08L426.33 201.08L425.83 201.58L425.67 201.58L425.5 201.75L425.33 201.75L425.17 201.92L424.83 201.92L424.5 202.25L424.33 202.25L423.83 202.75L423.5 202.75L423.33 202.92L423 202.92L422.83 203.08L422.67 203.08L422.5 203.25L422.33 203.25L422 203.58L421.83 203.58L421.67 203.75L421.33 203.75L421.17 203.92L420.83 203.92L420.67 204.08L420.5 204.08L420.33 204.25L420.17 204.25L419.83 204.58L419.67 204.58L419.5 204.75L419.17 204.75L419 204.92L418.67 204.92L418.5 205.08L418.17 205.08L418 205.25L417.83 205.25L417.67 205.42L417.5 205.42L417.33 205.58L417.17 205.58L417 205.75L416.5 205.75L416.33 205.92L415.67 205.92L415.5 206.08L415.17 206.08L415 206.25L414.83 206.25L414.5 206.58L414.17 206.58L414 206.75L413.33 206.75L413.17 206.92L412.17 206.92L412 207.08L411.5 207.08L411.33 207.25L411.17 207.25L411 207.42L410.67 207.42L410.5 207.58L410.17 207.58L410 207.75L409.17 207.75L409 207.92L407.33 207.92L407.17 208.08L406.33 208.08L406.17 208.25L405.5 208.25L405.33 208.42L404.83 208.42L404.67 208.58L403.17 208.58L403 208.75L399.67 208.75L399.5 208.92L399.17 208.92L399 208.75L393.83 208.75L393.67 208.58L392.83 208.58L392.67 208.42L392 208.42L391.83 208.25L391 208.25L390.83 208.08L389.67 208.08L389.5 207.92L388.17 207.92L388 207.75L387.17 207.75L387 207.58L386.5 207.58L386.33 207.42L386.17 207.42L386 207.25L385.5 207.25L385.33 207.08L384.83 207.08L384.67 206.92L383.67 206.92L383.5 206.75L383 206.75L382.83 206.58L382.5 206.58L382.33 206.42L382.17 206.42L382 206.25L381.83 206.25L381.67 206.08L381.33 206.08L381.17 205.92L380.5 205.92L380.33 205.75L379.83 205.75L379.67 205.58L379.5 205.58L379.17 205.25L379 205.25L378.83 205.08L378.5 205.08L378.33 204.92L377.83 204.92L377.67 204.75L377.17 204.75L377 204.58L376.83 204.58L376.5 204.25L376.33 204.25L376.17 204.08L376 204.08L375.83 203.92L375.5 203.92L375.33 203.75L375 203.75L374.83 203.58L374.67 203.58L374.33 203.25L374.17 203.25L374 203.08L373.83 203.08L373.67 202.92L373.33 202.92L373.17 202.75L373 202.75L372.83 202.58L372.67 202.58L372.17 202.08L372 202.08L371.83 201.92L371.5 201.92L371.33 201.75L371.17 201.75L371 201.58L370.83 201.58L370.33 201.08L370.17 201.08L370 200.92L369.83 200.92L369.67 200.75L369.5 200.75L369.33 200.58L369.17 200.58L368.5 199.92L368.17 199.92L368 199.75L367.83 199.75L367.17 199.08L367 199.08L366.83 198.92L366.67 198.92L366.5 198.75L366.33 198.75L365.5 197.92L365.33 197.92L365.17 197.75L365 197.75L364.17 196.92L364 196.92L363.17 196.08L363 196.08L362.67 195.75L362.5 195.75L361.5 194.75L361.33 194.75L360.92 194.33L360.92 194.17L360.83 194.08L360.67 194.08L359.5 192.92L359.33 192.92L358.92 192.5L358.92 192.33L358.33 191.75L358.17 191.75L358.08 191.67L358.08 191.5L357.33 190.75L357.17 190.75L357.08 190.67L357.08 190.5L356.08 189.5L356.08 189.33L355.08 188.33L355.08 188.17L354.08 187.17L354.08 187L353.92 186.83L353.92 186.67L353.08 185.83L353.08 185.67L352.92 185.5L352.92 185.33L352.08 184.5L352.08 184.33L351.92 184.17L351.92 184L351.58 183.67L351.58 183.5L351.08 183L351.08 182.83L350.92 182.67L350.92 182.5L350.75 182.33L350.75 182.17L350.08 181.5L350.08 181.33L349.92 181.17L349.92 180.83L349.75 180.67L349.75 180.5L349.25 180L349.25 179.83L349.08 179.67L349.08 179.5L348.92 179.33L348.92 179.17L348.75 179L348.75 178.83L348.58 178.67L348.58 178.5L348.08 178L348.08 177.67L347.92 177.5L347.92 177.17L347.75 177L347.75 176.83L347.58 176.67L347.58 176.5L347.25 176.17L347.25 176L347.08 175.83L347.08 175.5L346.92 175.33L346.92 175L346.75 174.83L346.75 174.5L346.42 174.17L346.42 174L346.25 173.83L346.25 173.67L346.08 173.5L346.08 173.17L345.92 173L345.92 172.33L345.75 172.17L345.75 172L345.58 171.83L345.58 171.67L345.42 171.5L345.42 171.33L345.25 171.17L345.25 170.83L345.08 170.67L345.08 170.17L344.92 170L344.92 169.33L344.75 169.17L344.75 168.67L344.58 168.5L344.58 168.33L344.42 168.17L344.42 167.83L344.25 167.67L344.25 167.17L344.08 167L344.08 166.17L343.92 166L343.92 164.83L343.75 164.67L343.75 163.67L343.58 163.5L343.58 162.67L343.42 162.5L343.42 161.83L343.25 161.67L343.25 160.83L343.08 160.67L343.08 157.33L342.92 157.17L342.92 151L343.08 150.83L343.08 148L343.25 147.83L343.25 146.33L343.42 146.17L343.42 145.5L343.58 145.33L343.58 144.67L343.75 144.5L343.75 143.5L343.92 143.33L343.92 141.67L344.08 141.5L344.08 140.5L344.25 140.33L344.25 140L344.42 139.83L344.42 139.5L344.58 139.33L344.58 139L344.75 138.83L344.75 138.17L344.92 138L344.92 137.17L345.08 137L345.08 136.33L345.25 136.17L345.25 136L345.42 135.83L345.42 135.67L345.58 135.5L345.58 135.33L345.75 135.17L345.75 134.83L345.92 134.67L345.92 134L346.08 133.83L346.08 133.33L346.25 133.17L346.25 133L346.58 132.67L346.58 132.5L346.75 132.33L346.75 132.17L346.92 132L346.92 131.5L347.08 131.33L347.08 131L347.25 130.83L347.25 130.67L347.58 130.33L347.58 130.17L347.75 130L347.75 129.83L347.92 129.67L347.92 129.33L348.08 129.17L348.08 129L348.25 128.83L348.25 128.67L348.58 128.33L348.58 128.17L348.92 127.83L348.92 127.5L349.08 127.33L349.08 127.17L349.25 127L349.25 126.83L349.75 126.33L349.75 126.17L349.92 126L349.92 125.67L350.08 125.5L350.08 125.33L350.75 124.67L350.75 124.5L350.92 124.33L350.92 124.17L351.08 124L351.08 123.83L351.75 123.17L351.75 123L352.08 122.67L352.08 122.5L352.75 121.83L352.75 121.67L352.92 121.5L352.92 121.33L353.75 120.5L353.75 120.33L353.92 120.17L353.92 120L354.42 119.5L354.42 119.33L355.08 118.67L355.08 118.5L356.08 117.5L356.08 117.33L356.33 117.08L356.5 117.08L356.92 116.67L356.92 116.5L358.08 115.33L358.08 115.17L358.33 114.92L358.5 114.92L358.92 114.5L358.92 114.33L359.33 113.92L359.5 113.92L360.67 112.75L360.83 112.75L360.92 112.67L360.92 112.5L361.33 112.08L361.5 112.08L362.67 110.92L362.83 110.92L363.08 110.67L363.08 110.5L363.33 110.25L363.5 110.25L363.83 109.92L364 109.92L364.33 109.58L364.5 109.58L365.17 108.92L365.33 108.92L365.5 108.75L365.67 108.75L366.5 107.92L366.67 107.92L367.33 107.25L367.5 107.25L367.67 107.08L367.83 107.08L368.17 106.75L368.33 106.75L368.83 106.25L369 106.25L369.17 106.08L369.33 106.08L369.5 105.92L369.67 105.92L370.17 105.42L370.33 105.42L370.67 105.08L370.83 105.08L371 104.92L371.33 104.92L371.5 104.75L371.67 104.75L372.17 104.25L372.33 104.25L372.5 104.08L372.67 104.08L372.83 103.92L373.17 103.92L373.33 103.75L373.5 103.75L374 103.25L374.17 103.25L374.33 103.08L374.67 103.08L374.83 102.92L375.17 102.92L375.33 102.75L375.5 102.75L375.67 102.58L375.83 102.58L376.17 102.25L376.33 102.25L376.5 102.08L376.83 102.08L377 101.92L377.5 101.92L377.67 101.75L378 101.75L378.17 101.58L378.33 101.58L378.5 101.42L378.67 101.42L378.83 101.25L379 101.25L379.17 101.08L379.67 101.08L379.83 100.92L380.5 100.92L380.67 100.75L381 100.75L381.17 100.58L381.33 100.58L381.5 100.42L381.83 100.42L382 100.25L382.33 100.25L382.5 100.08L383.17 100.08L383.33 99.92L384.5 99.92L384.67 99.75L385.17 99.75L385.33 99.58L385.83 99.58L386 99.42L386.5 99.42L386.67 99.25L387.33 99.25L387.5 99.08L388.83 99.08L389 98.92L391.33 98.92L391.5 98.75L393.33 98.75L393.5 98.58L395.17 98.58ZM279.83 100.58L280.17 100.58L280.33 100.75L280.5 100.75L280.75 101L280.75 101.17L280.92 101.33L280.92 156L281.08 156.17L281.08 172.83L281.25 173L281.25 177.83L281.42 178L281.42 180.17L281.58 180.33L281.58 182L281.75 182.17L281.75 183.17L281.92 183.33L281.92 183.67L282.17 183.92L282.33 183.92L282.5 184.08L282.83 184.08L283 184.25L283.17 184.25L283.33 184.42L283.67 184.42L283.83 184.58L284.17 184.58L284.33 184.75L285.5 184.75L285.67 184.92L291.5 184.92L291.67 185.08L323.67 185.08L323.83 185.25L324 185.25L324.25 185.5L324.25 185.67L324.42 185.83L324.42 206L324.25 206.17L324.25 206.33L324 206.58L323.83 206.58L323.67 206.75L261.33 206.75L260.75 206.17L260.75 205.83L260.58 205.67L260.58 205.5L260.42 205.33L260.42 205.17L260.25 205L260.25 204.5L260.08 204.33L260.08 203.33L259.92 203.17L259.92 196.67L259.75 196.5L259.75 183.33L259.58 183.17L259.58 139.17L259.75 139L259.75 118.83L259.92 118.67L259.92 107.33L260.08 107.17L260.08 103.83L260.25 103.67L260.25 103L260.42 102.83L260.42 102.67L260.58 102.5L260.58 102.33L260.75 102.17L260.75 102L260.92 101.83L260.92 101.67L261.5 101.08L261.83 101.08L262 100.92L263.17 100.92L263.33 100.75L279.67 100.75ZM63.5 183.92L226.33 183.92L226.5 184.08L226.83 184.08L227.25 184.5L227.25 205.67L227.08 205.83L227.08 206.33L226.67 206.75L63.33 206.75L63.08 206.5L63.08 206.33L62.92 206.17L62.92 184.33L63.17 184.08L63.33 184.08Z" fill="#0F43FF" fill-rule="evenodd"></path></svg>